<svg xmlns="http://www.w3.org/2000/svg" viewBox="0 0 96 96" width="96" height="96" role="img" aria-hidden="true"><circle cx="48" cy="48" r="48" fill="#ede9fe"/><path d="M14 96c0-17 15-27 34-27s34 10 34 27z" fill="#7c3aed"/><path d="M48 17c-14 0-23 10-23 24 0 9 3 16 9 21l-4 9h36l-4-9c6-5 9-12 9-21 0-14-9-24-23-24z" fill="#4a3b32"/><ellipse cx="48" cy="44" rx="13" ry="15" fill="#e6b98f"/><circle cx="42" cy="44" r="1.8" fill="#3f3f46"/><circle cx="54" cy="44" r="1.8" fill="#3f3f46"/><path d="M43 51c1.6 1.8 3.2 2.6 5 2.6s3.4-.8 5-2.6" stroke="#3f3f46" stroke-width="1.6" stroke-linecap="round" fill="none"/></svg>
