<svg xmlns="http://www.w3.org/2000/svg" viewBox="0 0 96 96" width="96" height="96" role="img" aria-hidden="true"><circle cx="48" cy="48" r="48" fill="#e0e7ff"/><path d="M14 96c0-17 15-27 34-27s34 10 34 27z" fill="#4f46e5"/><circle cx="48" cy="43" r="18" fill="#e6b98f"/><path d="M48 22a18 18 0 0 0-18 18h5a13 13 0 0 1 26 0h5a18 18 0 0 0-18-18z" fill="#2f2a26"/><circle cx="42" cy="44" r="1.8" fill="#3f3f46"/><circle cx="54" cy="44" r="1.8" fill="#3f3f46"/><path d="M43 51c1.6 1.8 3.2 2.6 5 2.6s3.4-.8 5-2.6" stroke="#3f3f46" stroke-width="1.6" stroke-linecap="round" fill="none"/></svg>
